<svg width="143" height="14" viewBox="0 0 143 14" fill="none" xmlns="http://www.w3.org/2000/svg">
<path d="M131.574 0.628052C132.094 0.628087 132.274 0.808026 132.274 1.30774L132.254 5.94836H132.267V8.16809H132.254L132.274 12.8282C132.274 13.328 132.094 13.5079 131.574 13.5079H130.614C130.094 13.5079 129.914 13.3277 129.914 12.8077V1.32825C129.914 0.808248 130.094 0.628052 130.614 0.628052H131.574ZM141.534 0.628052C142.054 0.62808 142.234 0.808016 142.234 1.30774L142.214 2.54797C142.214 3.04793 142.094 3.34766 141.714 3.68762L138.034 7.02844L141.694 10.4679C142.074 10.8279 142.214 11.1281 142.214 11.6281L142.234 12.8282C142.234 13.3281 142.054 13.5079 141.534 13.5079H140.474C139.954 13.5078 139.774 13.328 139.794 12.8282L139.834 11.8282L135.954 8.16809H133.566V5.94836H135.974L139.814 2.40833L139.774 1.30774C139.754 0.807966 139.934 0.628052 140.454 0.628052H141.534Z" fill="white"/>
<path d="M121.511 0.588989C122.031 0.588989 122.331 0.708626 122.69 1.06848L123.891 2.24817C124.251 2.60813 124.251 2.84819 123.891 3.20813L123.091 3.9884C122.731 4.34833 122.491 4.34864 122.131 3.96887L120.991 2.74817H114.811L112.971 4.58899V9.52844L114.831 11.3888H121.031L122.171 10.1886C122.511 9.82866 122.751 9.82828 123.131 10.2081L123.851 10.9288C124.23 11.3087 124.231 11.5485 123.871 11.9083L122.69 13.0685C122.331 13.4284 122.031 13.549 121.511 13.549H114.431C113.911 13.5489 113.61 13.4289 113.23 13.049L111.051 10.8683C110.671 10.4883 110.551 10.188 110.551 9.66809V4.4884C110.551 3.96846 110.671 3.66869 111.031 3.30872L113.251 1.06848C113.611 0.708593 113.911 0.589007 114.431 0.588989H121.511Z" fill="white"/>
<path d="M96.8105 4.0332L92.8887 8.02637V12.9688C92.8885 13.2447 92.6647 13.4687 92.3887 13.4688H90.8887C90.6126 13.4688 90.3888 13.2447 90.3887 12.9688V7.9248C90.3887 7.3351 90.62 6.76838 91.0332 6.34766L95.0439 2.27832L96.8105 4.0332ZM97.6025 0.511719C97.7111 0.472726 97.8297 0.473183 97.9385 0.511719L99.082 0.916992C99.1518 0.941773 99.2161 0.981892 99.2686 1.03418L104.479 6.22852C104.901 6.65046 105.139 7.22362 105.139 7.82031V12.9688C105.139 13.2447 104.915 13.4687 104.639 13.4688H103.139C102.863 13.4688 102.639 13.2447 102.639 12.9688V7.92383L98.0186 3.30469L98.0215 3.30371L96.0264 1.28027L96.2559 1.04883C96.3084 0.995514 96.3729 0.954052 96.4434 0.928711L97.6025 0.511719Z" fill="white"/>
<path d="M80.4548 2.82827V12.8083C80.4548 13.3283 80.2748 13.5083 79.7548 13.5083H78.8148C78.2948 13.5083 78.1148 13.3283 78.1148 12.8283L78.1348 2.82827H74.8548L73.9148 3.82827C73.5548 4.20827 73.3148 4.20827 72.9548 3.84827L72.1548 3.06827C71.7948 2.70827 71.7948 2.46827 72.1548 2.10827L73.1348 1.14827C73.4948 0.788275 73.7948 0.668274 74.3148 0.668274H84.2748C84.7948 0.668274 85.0948 0.788275 85.4548 1.14827L86.4348 2.10827C86.7948 2.46827 86.7948 2.70827 86.4348 3.06827L85.6548 3.82827C85.2748 4.20827 85.0148 4.18827 84.6548 3.80827L83.7348 2.82827H80.4548Z" fill="white"/>
<path d="M63.0696 11.264L65.5062 13.3841C65.3529 13.441 65.1792 13.4681 64.9632 13.4681H57.6038C57.0838 13.4681 56.9036 13.2879 56.9036 12.7679V11.9485C56.9036 11.4286 57.0835 11.2484 57.5833 11.2484L63.0696 11.264ZM67.7532 0.650696C68.2019 0.649783 68.4246 1.19446 68.1038 1.50812L66.8187 2.76495C66.7245 2.85681 66.5977 2.90735 66.4661 2.90656L60.0638 2.86847L59.6839 3.32843L67.4632 10.0081C67.8832 10.3681 67.9033 10.6081 67.5833 11.0081L66.4407 12.47L64.5003 10.8099L64.5032 10.8079L56.7239 4.12823C56.304 3.76825 56.2834 3.52815 56.6234 3.0882L58.0237 1.24835C58.3637 0.808368 58.6439 0.668274 59.1439 0.668274L67.7532 0.650696Z" fill="white"/>
<path d="M39.0762 0.628906C39.436 0.628906 39.5965 0.788265 39.5967 1.12793L39.5762 2.86816L44.5 7.77246L44.4971 7.77637L45.4941 8.77344L45.2969 8.96875L45.3164 13.0088C45.3163 13.3484 45.1565 13.5087 44.7969 13.5088H44.6367C44.2768 13.5088 44.1163 13.3485 44.1162 13.0088L44.1562 8.96875L38.7568 3.66797C38.5169 3.42798 38.3965 3.14806 38.3965 2.78809V1.14844C38.3965 0.788595 38.5563 0.629045 38.916 0.628906H39.0762ZM50.5166 0.628906C50.8765 0.628941 51.0361 0.788478 51.0361 1.14844V2.78809C51.0361 3.14791 50.9165 3.42805 50.6768 3.66797L46.207 8.07129L45.458 7.32324L49.8965 2.86816L49.8564 1.12793C49.8566 0.788265 50.0171 0.628906 50.377 0.628906H50.5166Z" fill="white"/>
<path d="M19.7861 0.62793C20.146 0.627965 20.3057 0.788478 20.3057 1.14844V6.48828H29.375V7.56836H20.3057V12.9883C20.3057 13.3482 20.146 13.5088 19.7861 13.5088H19.6855C19.3259 13.5087 19.166 13.3481 19.166 12.9883V1.14844C19.166 0.788594 19.3259 0.628068 19.6855 0.62793H19.7861ZM30.9658 0.62793C31.3258 0.62793 31.4863 0.788439 31.4863 1.14844V12.9883C31.4863 13.3483 31.3258 13.5088 30.9658 13.5088H30.8662C30.5063 13.5088 30.3458 13.3485 30.3457 13.0088L30.3643 8.125H30.375V5.875H30.3643L30.3457 1.12793C30.3459 0.788265 30.5064 0.62793 30.8662 0.62793H30.9658Z" fill="white"/>
<path d="M9.44531 0.667969C9.80517 0.667969 10.0853 0.78851 10.3252 1.02832L11.7461 2.44824C11.9859 2.68814 12.1054 2.96835 12.1055 3.32812V5.94824C12.1055 6.30804 11.9858 6.58821 11.7461 6.82812L10.3057 8.24805C10.0657 8.48805 9.78531 8.6084 9.44531 8.6084L2.95703 8.59082V7.56836H9.44531L10.9453 6.06836V3.20801L9.44531 1.70801H1.90527V7.56836H1.95703V8.58887H1.90527V12.9482C1.90527 13.3082 1.74566 13.4882 1.38574 13.4883H1.30566C0.925664 13.5083 0.765625 13.3483 0.765625 12.9883V1.18848C0.765625 0.828633 0.925486 0.668108 1.28516 0.667969H9.44531Z" fill="white"/>
</svg>
